<svg width="20" height="16" viewBox="0 0 20 16" fill="none" xmlns="http://www.w3.org/2000/svg">
<path d="M2.2085 15.3334C1.84183 15.3334 1.521 15.1959 1.246 14.9209C0.970996 14.6459 0.833496 14.325 0.833496 13.9584V2.04169C0.833496 1.67502 0.970996 1.35419 1.246 1.07919C1.521 0.804187 1.84183 0.666687 2.2085 0.666687H17.7918C18.1585 0.666687 18.4793 0.804187 18.7543 1.07919C19.0293 1.35419 19.1668 1.67502 19.1668 2.04169V13.9584C19.1668 14.325 19.0293 14.6459 18.7543 14.9209C18.4793 15.1959 18.1585 15.3334 17.7918 15.3334H2.2085ZM10.0002 8.41252L2.2085 3.3021V13.9584H17.7918V3.3021L10.0002 8.41252ZM10.0002 7.03752L17.7002 2.04169H2.32308L10.0002 7.03752ZM2.2085 3.3021V2.04169V13.9584V3.3021Z" fill="#48382D"/>
</svg>
