<svg width="22" height="22" viewBox="0 0 22 22" fill="none" xmlns="http://www.w3.org/2000/svg">
<path fill-rule="evenodd" clip-rule="evenodd" d="M8.16667 11.0833V20.75C8.16667 20.9167 8.25 21 8.41667 21H12.25C12.4167 21 12.5 20.9167 12.5 20.75V10.9167H15.3333C15.5 10.9167 15.5833 10.8333 15.5833 10.6667L15.8333 7.66667C15.8333 7.5 15.75 7.41667 15.5833 7.41667H12.5V5.33333C12.5 4.83333 12.9167 4.41667 13.5 4.41667H15.6667C15.9167 4.41667 16 4.33333 16 4.16667V1.25C16 1.08333 15.9167 1 15.75 1H12.0833C9.91667 1 8.16667 2.58333 8.16667 4.58333V7.41667H6.25C6.08333 7.41667 6 7.5 6 7.66667V10.6667C6 10.8333 6.08333 10.9167 6.25 10.9167H8.16667V11.0833Z" fill="#F4EFEC"/>
</svg>
