<svg width="25" height="25" viewBox="0 0 25 25" fill="none" xmlns="http://www.w3.org/2000/svg">
<g clip-path="url(#clip0_1706_1024)">
<path d="M19.1226 4.54022C18.2833 4.54022 17.6538 5.16968 17.6538 6.00897C17.6538 6.84825 18.2833 7.47771 19.1226 7.47771C19.9618 7.47771 20.5913 6.84825 20.5913 6.00897C20.5913 5.16968 19.9618 4.54022 19.1226 4.54022Z" fill="#48382D"/>
<path d="M12.5134 6.42859C9.0514 6.42859 6.32373 9.26117 6.32373 12.6183C6.32373 15.9754 9.15631 18.808 12.5134 18.808C15.8706 18.808 18.7031 15.9754 18.7031 12.6183C18.7031 9.26117 15.9755 6.42859 12.5134 6.42859ZM12.5134 16.6049C10.3103 16.6049 8.52684 14.8214 8.52684 12.6183C8.52684 10.4152 10.3103 8.6317 12.5134 8.6317C14.7165 8.6317 16.5 10.4152 16.5 12.6183C16.5 14.8214 14.7165 16.6049 12.5134 16.6049Z" fill="#48382D"/>
<path d="M17.5487 -0.0758362H7.58228C3.28096 -0.0758362 -0.0761719 3.28129 -0.0761719 7.4777V17.4442C-0.0761719 21.6406 3.28096 24.9977 7.47737 24.9977H17.4438C21.6402 24.9977 24.9974 21.6406 24.9974 17.4442V7.4777C25.1023 3.28129 21.7452 -0.0758362 17.5487 -0.0758362ZM22.6894 17.5491C22.6894 20.3817 20.3813 22.7946 17.4438 22.7946H7.47737C4.64479 22.7946 2.23185 20.4866 2.23185 17.5491V7.58261C2.23185 4.75004 4.53988 2.3371 7.47737 2.3371H17.4438C20.2764 2.3371 22.6894 4.64513 22.6894 7.58261V17.5491Z" fill="#48382D"/>
</g>
<defs>
<clipPath id="clip0_1706_1024">
<rect width="25" height="25" fill="white"/>
</clipPath>
</defs>
</svg>
