<svg width="20" height="21" viewBox="0 0 20 21" fill="none" xmlns="http://www.w3.org/2000/svg">
<g clip-path="url(#clip0_1705_1000)">
<path fill-rule="evenodd" clip-rule="evenodd" d="M1.06703 2.16695C0.783876 2.52828 0.54699 2.94516 0.371118 3.39461C0.208644 3.82245 0.107481 4.23084 0.0612103 4.6398C-0.334437 7.9209 1.16481 10.9194 5.23375 14.9887C10.8582 20.6128 15.391 20.188 15.5864 20.1671C16.0126 20.1163 16.4205 20.0145 16.8354 19.8534C17.2811 19.6792 17.6977 19.443 18.0587 19.1605L18.0772 19.1766L18.9329 18.3386C19.5505 17.7198 19.5683 16.7314 18.9727 16.1338L15.9755 13.1363C15.3786 12.5417 14.3899 12.5599 13.7721 13.1777L12.2622 14.6876C12.1669 14.6348 12.0681 14.5799 11.9643 14.5217C11.0108 13.9934 9.70563 13.2692 8.33216 11.8948C6.95649 10.5192 6.23148 9.21342 5.70188 8.25956L5.7 8.25619C5.68606 8.2311 5.67229 8.20625 5.65865 8.18165C5.6173 8.10705 5.57723 8.03475 5.53753 7.96516L6.55098 6.95305L7.04913 6.45422C7.66799 5.83536 7.68514 4.84692 7.08927 4.25076L4.09203 1.25284C3.61596 0.776782 2.88832 0.692882 2.29941 0.994585C2.23702 1.02655 2.17619 1.06284 2.11738 1.10344C2.03693 1.15899 1.96026 1.22263 1.88857 1.29432L1.04382 2.14387L1.06703 2.16695C1.06705 2.16692 1.067 2.16697 1.06703 2.16695ZM2.51492 3.07541L2.40516 3.21546C2.22968 3.43938 2.07489 3.70795 1.95729 4.00631C1.84232 4.3108 1.77901 4.57831 1.75043 4.83092L1.74903 4.84332C1.44994 7.32366 2.47214 9.82257 6.43589 13.7867C11.3179 18.6684 15.1368 18.4969 15.4012 18.4771C15.6765 18.443 15.9401 18.3772 16.2186 18.2692C16.5154 18.153 16.7858 17.9979 17.0109 17.8217L17.1107 17.7437L17.6502 17.2154L14.8945 14.4594L12.5588 16.7951L11.4386 16.1748C11.3429 16.1218 11.2425 16.066 11.1364 16.0065L11.1273 16.0015C10.1515 15.4608 8.67481 14.6426 7.13012 13.0969C5.58572 11.5526 4.76671 10.0774 4.22519 9.10206L4.21414 9.08214C4.19751 9.05224 4.18214 9.02451 4.16766 8.99838C4.12802 8.92687 4.09498 8.86726 4.06086 8.80744L3.41761 7.6797L5.76684 5.33246L3.01125 2.57626L2.51492 3.07541Z" fill="#48382D"/>
</g>
<defs>
<clipPath id="clip0_1705_1000">
<rect width="19.408" height="19.408" fill="white" transform="translate(0 0.79599)"/>
</clipPath>
</defs>
</svg>
